<svg id="visual" viewBox="0 0 960 540" width="960" height="540" xmlns="http://www.w3.org/2000/svg" xmlns:xlink="http://www.w3.org/1999/xlink" version="1.1"><rect x="0" y="0" width="960" height="540" fill="#151a25"></rect><defs><linearGradient id="grad1_0" x1="43.8%" y1="100%" x2="100%" y2="0%"><stop offset="14.444444444444446%" stop-color="#3c87fa" stop-opacity="1"></stop><stop offset="85.55555555555554%" stop-color="#3c87fa" stop-opacity="1"></stop></linearGradient></defs><defs><linearGradient id="grad1_1" x1="43.8%" y1="100%" x2="100%" y2="0%"><stop offset="14.444444444444446%" stop-color="#3c87fa" stop-opacity="1"></stop><stop offset="85.55555555555554%" stop-color="#306ac0" stop-opacity="1"></stop></linearGradient></defs><defs><linearGradient id="grad1_2" x1="43.8%" y1="100%" x2="100%" y2="0%"><stop offset="14.444444444444446%" stop-color="#284e88" stop-opacity="1"></stop><stop offset="85.55555555555554%" stop-color="#306ac0" stop-opacity="1"></stop></linearGradient></defs><defs><linearGradient id="grad1_3" x1="43.8%" y1="100%" x2="100%" y2="0%"><stop offset="14.444444444444446%" stop-color="#284e88" stop-opacity="1"></stop><stop offset="85.55555555555554%" stop-color="#203354" stop-opacity="1"></stop></linearGradient></defs><defs><linearGradient id="grad1_4" x1="43.8%" y1="100%" x2="100%" y2="0%"><stop offset="14.444444444444446%" stop-color="#151a25" stop-opacity="1"></stop><stop offset="85.55555555555554%" stop-color="#203354" stop-opacity="1"></stop></linearGradient></defs><defs><linearGradient id="grad2_0" x1="0%" y1="100%" x2="56.3%" y2="0%"><stop offset="14.444444444444446%" stop-color="#3c87fa" stop-opacity="1"></stop><stop offset="85.55555555555554%" stop-color="#3c87fa" stop-opacity="1"></stop></linearGradient></defs><defs><linearGradient id="grad2_1" x1="0%" y1="100%" x2="56.3%" y2="0%"><stop offset="14.444444444444446%" stop-color="#306ac0" stop-opacity="1"></stop><stop offset="85.55555555555554%" stop-color="#3c87fa" stop-opacity="1"></stop></linearGradient></defs><defs><linearGradient id="grad2_2" x1="0%" y1="100%" x2="56.3%" y2="0%"><stop offset="14.444444444444446%" stop-color="#306ac0" stop-opacity="1"></stop><stop offset="85.55555555555554%" stop-color="#284e88" stop-opacity="1"></stop></linearGradient></defs><defs><linearGradient id="grad2_3" x1="0%" y1="100%" x2="56.3%" y2="0%"><stop offset="14.444444444444446%" stop-color="#203354" stop-opacity="1"></stop><stop offset="85.55555555555554%" stop-color="#284e88" stop-opacity="1"></stop></linearGradient></defs><defs><linearGradient id="grad2_4" x1="0%" y1="100%" x2="56.3%" y2="0%"><stop offset="14.444444444444446%" stop-color="#203354" stop-opacity="1"></stop><stop offset="85.55555555555554%" stop-color="#151a25" stop-opacity="1"></stop></linearGradient></defs><g transform="translate(960, 540)"><path d="M-324 0C-314.5 -43.3 -304.9 -86.6 -281.8 -116.7C-258.6 -146.8 -221.8 -163.7 -195.9 -195.9C-169.9 -228 -154.8 -275.4 -124 -299.3C-93.2 -323.2 -46.6 -323.6 0 -324L0 0Z" fill="#1b263c"></path><path d="M-259.2 0C-251.6 -34.6 -244 -69.3 -225.4 -93.4C-206.9 -117.5 -177.5 -131 -156.7 -156.7C-135.9 -182.4 -123.9 -220.4 -99.2 -239.5C-74.5 -258.6 -37.3 -258.9 0 -259.2L0 0Z" fill="#24406e"></path><path d="M-194.4 0C-188.7 -26 -183 -52 -169.1 -70C-155.2 -88.1 -133.1 -98.2 -117.5 -117.5C-102 -136.8 -92.9 -165.3 -74.4 -179.6C-55.9 -193.9 -27.9 -194.2 0 -194.4L0 0Z" fill="#2c5ca3"></path><path d="M-129.6 0C-125.8 -17.3 -122 -34.6 -112.7 -46.7C-103.4 -58.7 -88.7 -65.5 -78.3 -78.3C-68 -91.2 -61.9 -110.2 -49.6 -119.7C-37.3 -129.3 -18.6 -129.4 0 -129.6L0 0Z" fill="#3678dc"></path><path d="M-64.8 0C-62.9 -8.7 -61 -17.3 -56.4 -23.3C-51.7 -29.4 -44.4 -32.7 -39.2 -39.2C-34 -45.6 -31 -55.1 -24.8 -59.9C-18.6 -64.6 -9.3 -64.7 0 -64.8L0 0Z" fill="#3c87fa"></path></g><g transform="translate(0, 0)"><path d="M324 0C303.5 35.3 282.9 70.6 270.7 112.1C258.5 153.6 254.6 201.3 229.1 229.1C203.6 256.9 156.6 264.7 114.8 277.2C73 289.7 36.5 306.8 0 324L0 0Z" fill="#1b263c"></path><path d="M259.2 0C242.8 28.2 226.3 56.5 216.6 89.7C206.8 122.9 203.7 161.1 183.3 183.3C162.9 205.5 125.3 211.7 91.8 221.7C58.4 231.7 29.2 245.5 0 259.2L0 0Z" fill="#24406e"></path><path d="M194.4 0C182.1 21.2 169.8 42.4 162.4 67.3C155.1 92.2 152.7 120.8 137.5 137.5C122.2 154.1 94 158.8 68.9 166.3C43.8 173.8 21.9 184.1 0 194.4L0 0Z" fill="#2c5ca3"></path><path d="M129.6 0C121.4 14.1 113.2 28.2 108.3 44.9C103.4 61.5 101.8 80.5 91.6 91.6C81.5 102.7 62.6 105.9 45.9 110.9C29.2 115.9 14.6 122.7 0 129.6L0 0Z" fill="#3678dc"></path><path d="M64.8 0C60.7 7.1 56.6 14.1 54.1 22.4C51.7 30.7 50.9 40.3 45.8 45.8C40.7 51.4 31.3 52.9 23 55.4C14.6 57.9 7.3 61.4 0 64.8L0 0Z" fill="#3c87fa"></path></g></svg>