<svg id="visual" viewBox="0 0 900 600" width="900" height="600" xmlns="http://www.w3.org/2000/svg" xmlns:xlink="http://www.w3.org/1999/xlink" version="1.1"><rect x="0" y="0" width="900" height="600" fill="#e9e9e9"></rect><defs><linearGradient id="grad1_0" x1="33.3%" y1="100%" x2="100%" y2="0%"><stop offset="20%" stop-color="#3d5ea0" stop-opacity="1"></stop><stop offset="80%" stop-color="#3d5ea0" stop-opacity="1"></stop></linearGradient></defs><defs><linearGradient id="grad1_1" x1="33.3%" y1="100%" x2="100%" y2="0%"><stop offset="20%" stop-color="#3d5ea0" stop-opacity="1"></stop><stop offset="80%" stop-color="#6d7eb2" stop-opacity="1"></stop></linearGradient></defs><defs><linearGradient id="grad1_2" x1="33.3%" y1="100%" x2="100%" y2="0%"><stop offset="20%" stop-color="#97a0c5" stop-opacity="1"></stop><stop offset="80%" stop-color="#6d7eb2" stop-opacity="1"></stop></linearGradient></defs><defs><linearGradient id="grad1_3" x1="33.3%" y1="100%" x2="100%" y2="0%"><stop offset="20%" stop-color="#97a0c5" stop-opacity="1"></stop><stop offset="80%" stop-color="#c0c4d7" stop-opacity="1"></stop></linearGradient></defs><defs><linearGradient id="grad1_4" x1="33.3%" y1="100%" x2="100%" y2="0%"><stop offset="20%" stop-color="#e9e9e9" stop-opacity="1"></stop><stop offset="80%" stop-color="#c0c4d7" stop-opacity="1"></stop></linearGradient></defs><defs><linearGradient id="grad2_0" x1="0%" y1="100%" x2="66.7%" y2="0%"><stop offset="20%" stop-color="#3d5ea0" stop-opacity="1"></stop><stop offset="80%" stop-color="#3d5ea0" stop-opacity="1"></stop></linearGradient></defs><defs><linearGradient id="grad2_1" x1="0%" y1="100%" x2="66.7%" y2="0%"><stop offset="20%" stop-color="#6d7eb2" stop-opacity="1"></stop><stop offset="80%" stop-color="#3d5ea0" stop-opacity="1"></stop></linearGradient></defs><defs><linearGradient id="grad2_2" x1="0%" y1="100%" x2="66.7%" y2="0%"><stop offset="20%" stop-color="#6d7eb2" stop-opacity="1"></stop><stop offset="80%" stop-color="#97a0c5" stop-opacity="1"></stop></linearGradient></defs><defs><linearGradient id="grad2_3" x1="0%" y1="100%" x2="66.7%" y2="0%"><stop offset="20%" stop-color="#c0c4d7" stop-opacity="1"></stop><stop offset="80%" stop-color="#97a0c5" stop-opacity="1"></stop></linearGradient></defs><defs><linearGradient id="grad2_4" x1="0%" y1="100%" x2="66.7%" y2="0%"><stop offset="20%" stop-color="#c0c4d7" stop-opacity="1"></stop><stop offset="80%" stop-color="#e9e9e9" stop-opacity="1"></stop></linearGradient></defs><g transform="translate(900, 600)"><path d="M-351.5 0C-343.2 -47.8 -334.8 -95.6 -309.5 -128.2C-284.2 -160.8 -241.9 -178.3 -212.8 -212.8C-183.7 -247.3 -167.8 -298.8 -134.5 -324.8C-101.2 -350.7 -50.6 -351.1 0 -351.5L0 0Z" fill="#d5d6e0"></path><path d="M-281.2 0C-274.5 -38.2 -267.8 -76.4 -247.6 -102.6C-227.4 -128.7 -193.5 -142.7 -170.3 -170.3C-147 -197.9 -134.2 -239.1 -107.6 -259.8C-81 -280.6 -40.5 -280.9 0 -281.2L0 0Z" fill="#acb2ce"></path><path d="M-210.9 0C-205.9 -28.7 -200.9 -57.3 -185.7 -76.9C-170.5 -96.5 -145.2 -107 -127.7 -127.7C-110.2 -148.4 -100.7 -179.3 -80.7 -194.9C-60.7 -210.4 -30.4 -210.7 0 -210.9L0 0Z" fill="#828fbb"></path><path d="M-140.6 0C-137.3 -19.1 -133.9 -38.2 -123.8 -51.3C-113.7 -64.3 -96.8 -71.3 -85.1 -85.1C-73.5 -98.9 -67.1 -119.5 -53.8 -129.9C-40.5 -140.3 -20.2 -140.5 0 -140.6L0 0Z" fill="#566ea9"></path><path d="M-70.3 0C-68.6 -9.6 -67 -19.1 -61.9 -25.6C-56.8 -32.2 -48.4 -35.7 -42.6 -42.6C-36.7 -49.5 -33.6 -59.8 -26.9 -65C-20.2 -70.1 -10.1 -70.2 0 -70.3L0 0Z" fill="#3d5ea0"></path></g><g transform="translate(0, 0)"><path d="M351.5 0C320.8 38.2 290 76.3 268.8 111.4C247.7 146.4 236 178.4 217.1 217.1C198.1 255.8 171.9 301.2 134.5 324.8C97.1 348.3 48.6 349.9 0 351.5L0 0Z" fill="#d5d6e0"></path><path d="M281.2 0C256.6 30.5 232 61 215.1 89.1C198.1 117.1 188.8 142.7 173.7 173.7C158.5 204.6 137.5 241 107.6 259.8C77.7 278.7 38.9 279.9 0 281.2L0 0Z" fill="#acb2ce"></path><path d="M210.9 0C192.5 22.9 174 45.8 161.3 66.8C148.6 87.8 141.6 107 130.2 130.2C118.9 153.5 103.2 180.7 80.7 194.9C58.3 209 29.1 210 0 210.9L0 0Z" fill="#828fbb"></path><path d="M140.6 0C128.3 15.3 116 30.5 107.5 44.5C99.1 58.6 94.4 71.3 86.8 86.8C79.3 102.3 68.8 120.5 53.8 129.9C38.9 139.3 19.4 140 0 140.6L0 0Z" fill="#566ea9"></path><path d="M70.3 0C64.2 7.6 58 15.3 53.8 22.3C49.5 29.3 47.2 35.7 43.4 43.4C39.6 51.2 34.4 60.2 26.9 65C19.4 69.7 9.7 70 0 70.3L0 0Z" fill="#3d5ea0"></path></g></svg>